<svg id="Logo_kubo_footer" data-name="Logo kubo footer" xmlns="http://www.w3.org/2000/svg" width="123.919" height="45.022" viewBox="0 0 123.919 45.022"><path id="Trazado_315" data-name="Trazado 315" d="M579.269,2001.931v-10.354h-8.511v18.616A19.933,19.933,0,0,1,579.269,2001.931Z" transform="translate(-507.756 -1991.578)" fill="#fff"/><path id="Trazado_316" data-name="Trazado 316" d="M482.888,2036.527H491.4v-44.949h-8.511Z" transform="translate(-482.888 -1991.578)" fill="#fff"/><path id="Trazado_317" data-name="Trazado 317" d="M514.877,2005.142A17.143,17.143,0,0,0,519.913,1993a13.722,13.722,0,0,0-.074-1.418h-7.766A9.159,9.159,0,0,1,512.2,1993a9.423,9.423,0,0,1-7.122,9.16h-6.129v7.74h6.278a9.44,9.44,0,0,1,9.429,9.459v17.171h7.717v-17.171A17.237,17.237,0,0,0,514.877,2005.142Z" transform="translate(-487.433 -1991.578)" fill="#fff"/><path id="Trazado_318" data-name="Trazado 318" d="M631.532,2021.793c0-.1-.025-.2-.025-.275,0-.1-.024-.2-.024-.272l-.075-.525c-.025-.1-.025-.2-.05-.3-.025-.15-.05-.325-.075-.474-.05-.249-.1-.5-.173-.746-.149-.6-.348-1.194-.546-1.766a.889.889,0,0,0-.1-.224c-.075-.174-.124-.348-.2-.5-.025-.075-.075-.15-.1-.226-.1-.248-.223-.472-.348-.721-.075-.125-.124-.249-.2-.375-.049-.1-.124-.224-.173-.323a3.511,3.511,0,0,1-.174-.324c-.1-.174-.224-.347-.323-.547-.025-.05-.05-.075-.075-.123-.174-.275-.348-.524-.546-.8-.025-.024-.025-.049-.05-.075-.1-.123-.174-.224-.273-.349-.05-.073-.124-.148-.174-.224-.1-.123-.2-.224-.3-.348-.05-.074-.125-.125-.174-.2-.347-.374-.694-.747-1.066-1.1a7.08,7.08,0,0,0-.646-.572c-.05-.026-.075-.075-.124-.1-.149-.125-.273-.224-.421-.349a.355.355,0,0,0-.1-.075c-.149-.125-.323-.25-.5-.374-.025,0-.025-.026-.05-.026-.248-.173-.521-.372-.769-.521l-.025-.024c-.447-.273-.893-.548-1.364-.8h-.025c-.2-.1-.422-.224-.62-.3-.273-.125-.546-.249-.818-.35a.087.087,0,0,1-.05-.022,6.86,6.86,0,0,0-.769-.275c-.025-.026-.075-.026-.1-.05-.248-.075-.471-.15-.719-.225-.05-.024-.1-.024-.174-.05a6.029,6.029,0,0,0-.7-.172c-.074-.026-.149-.026-.2-.05a6.153,6.153,0,0,0-.671-.126c-.075-.024-.174-.024-.248-.05-.223-.024-.422-.073-.646-.1-.1,0-.173-.025-.272-.025a6.275,6.275,0,0,0-.67-.05c-.074,0-.173-.024-.248-.024-.3-.026-.621-.026-.918-.026-.273,0-.547,0-.819.026-.1,0-.2.024-.3.024-.173,0-.347.026-.521.026a1.886,1.886,0,0,0-.372.049c-.148.026-.3.026-.421.05s-.273.049-.4.075l-.373.075a2.018,2.018,0,0,0-.421.1c-.1.026-.224.05-.322.076a2.914,2.914,0,0,0-.447.123l-.3.076c-.15.05-.323.1-.472.149-.075.025-.174.051-.249.075-.173.052-.323.125-.5.175l-.224.075c-.173.073-.348.124-.521.2-.05.025-.124.049-.174.075a5.085,5.085,0,0,0-.521.249l-.149.075c-.174.1-.372.174-.546.272a.186.186,0,0,1-.1.052,6.071,6.071,0,0,0-.57.324c-.025.024-.05.024-.075.05-.2.123-.4.248-.571.372l-.024.024a16.526,16.526,0,0,0-2.208,1.743,19.847,19.847,0,0,1,3.821,7.267,9.681,9.681,0,0,1,1.489-1.692l.024.026a9.322,9.322,0,0,1,4.095-2.166c.1-.024.223-.05.323-.074.025,0,.074-.026.1-.026h.049c.149-.026.323-.05.5-.075h.051a.219.219,0,0,0,.124-.026,2.221,2.221,0,0,1,.4-.022h.174c.173,0,.372-.026.545-.026h.5a9.452,9.452,0,0,1-.5,18.89,7.694,7.694,0,0,1-1.092-.075.725.725,0,0,1-.2-.1,9.448,9.448,0,0,1-8.015-8.71c0-.123-.1-.547-.1-.572v-.024c0-.6-.124-2.116-.124-2.116a17.14,17.14,0,0,0-34.169,2.016v.1a17.127,17.127,0,0,0,28.784,12.618l-.174-.224a39.353,39.353,0,0,1-3.7-7.143,9.359,9.359,0,0,1-7.767,4.107,9.383,9.383,0,1,1,9.43-9.383v.3c.025.7.124,1.792.124,1.792a17.127,17.127,0,0,0,3.723,8.835l.025-.024a16.421,16.421,0,0,0,1.538,1.666c.025.026.025.026.049.026a17.83,17.83,0,0,0,1.688,1.392h.024c.2.151.422.3.62.424h.025c.025,0,.025.025.05.025.2.123.4.249.62.372a.025.025,0,0,1,.025.026c.025.026.049.026.075.05.2.125.4.224.6.323a.025.025,0,0,1,.025.026c.049.024.074.05.123.05a5.9,5.9,0,0,0,.571.273.025.025,0,0,1,.025.026l.149.073c.174.075.372.174.546.249a.025.025,0,0,1,.025.026c.075.024.124.049.2.074a4.431,4.431,0,0,0,.521.2h.025l.223.075c.174.05.348.125.521.173h.025c.1.026.174.051.273.075a2.984,2.984,0,0,0,.5.125h.025c.1.025.223.05.322.075.149.026.3.073.447.1h.025l.373.075c.149.026.3.05.422.075H612a2.851,2.851,0,0,0,.446.049c.124.024.249.024.372.049h.025c.174.026.348.026.521.05.1,0,.223.024.323.024.272.026.571.026.868.026a17.175,17.175,0,0,0,17.146-17.2C631.606,2022.862,631.581,2022.316,631.532,2021.793Z" transform="translate(-507.786 -1995.635)" fill="#fff"/><path id="Trazado_319" data-name="Trazado 319" d="M558.9,2031.555c-.075.1-.124.2-.2.3a9.271,9.271,0,0,1-15.905-1.767,5.574,5.574,0,0,1-.372-1.394V2016.3h-7.965v13.439c.025.05.819,2.638.819,2.638a17.2,17.2,0,0,0,6.5,8.188c.05.025.074.051.124.077.024,0,.024.024.049.024a2.975,2.975,0,0,0,.272.174c.323.2.621.373.944.547.148.076.272.149.421.224a2.164,2.164,0,0,0,.422.2,2.823,2.823,0,0,0,.472.2l.521.222c.421.176.868.325,1.339.475.174.049.323.1.5.149a3.486,3.486,0,0,0,.545.123c.174.051.372.075.545.124a1.213,1.213,0,0,0,.323.05c.273.051.57.1.869.126.124.024.248.024.372.05a7.35,7.35,0,0,0,1.042.073h1.315a2.814,2.814,0,0,0,.446-.024,1.364,1.364,0,0,0,.323-.026c.124,0,.248-.024.372-.024.149-.026.273-.026.422-.05s.272-.025.421-.051l.446-.075a12.138,12.138,0,0,0,1.366-.3,2.521,2.521,0,0,0,.4-.125c.025,0,.025,0,.05-.024a2.085,2.085,0,0,0,.373-.127l.67-.223c.223-.073.447-.175.645-.25a5.482,5.482,0,0,0,.571-.247c.223-.1.421-.2.62-.3s.421-.224.62-.323c.149-.1.322-.174.472-.275.124-.074.223-.149.347-.222a5.98,5.98,0,0,0,.521-.349,1.432,1.432,0,0,0,.224-.174,2.818,2.818,0,0,0,.322-.249,1.311,1.311,0,0,0,.224-.174c.075-.05.149-.125.223-.175.149-.123.323-.249.472-.4a1.033,1.033,0,0,1,.173-.149.65.65,0,0,1,.149-.125l.024-.025A20.32,20.32,0,0,1,558.9,2031.555Z" transform="translate(-497.482 -1998.455)" fill="#fff"/></svg>